<mxfile host="Electron" modified="2023-12-22T18:33:05.701Z" agent="Mozilla/5.0 (Windows NT 10.0; Win64; x64) AppleWebKit/537.36 (KHTML, like Gecko) draw.io/22.1.11 Chrome/114.0.5735.289 Electron/25.9.8 Safari/537.36" etag="ve--fjAOAZYAF1r8Iowx" version="22.1.11" type="device">
  <diagram name="Page-1" id="OvRqPk3-q4lX9b5Ss2Dh">
    <mxGraphModel dx="683" dy="398" grid="1" gridSize="10" guides="1" tooltips="1" connect="1" arrows="1" fold="1" page="1" pageScale="1" pageWidth="1654" pageHeight="1169" math="0" shadow="0">
      <root>
        <mxCell id="0" />
        <mxCell id="1" parent="0" />
        <mxCell id="umXC-RFtf43Zf_NUYODG-1" value="MPU Read Task" style="rounded=1;whiteSpace=wrap;html=1;fillColor=#d5e8d4;strokeColor=#82b366;" vertex="1" parent="1">
          <mxGeometry x="680" y="280" width="120" height="60" as="geometry" />
        </mxCell>
        <mxCell id="umXC-RFtf43Zf_NUYODG-2" value="Ola Angle Calculate&lt;br&gt;(Roll Yaw Pitch)" style="rounded=1;whiteSpace=wrap;html=1;fillColor=#d5e8d4;strokeColor=#82b366;" vertex="1" parent="1">
          <mxGeometry x="680" y="360" width="120" height="60" as="geometry" />
        </mxCell>
        <mxCell id="umXC-RFtf43Zf_NUYODG-3" value="MAVLink Send Task" style="rounded=1;whiteSpace=wrap;html=1;fillColor=#d5e8d4;strokeColor=#82b366;" vertex="1" parent="1">
          <mxGeometry x="680" y="440" width="120" height="60" as="geometry" />
        </mxCell>
        <mxCell id="umXC-RFtf43Zf_NUYODG-6" style="edgeStyle=orthogonalEdgeStyle;rounded=0;orthogonalLoop=1;jettySize=auto;html=1;" edge="1" parent="1" source="umXC-RFtf43Zf_NUYODG-4" target="umXC-RFtf43Zf_NUYODG-5">
          <mxGeometry relative="1" as="geometry" />
        </mxCell>
        <mxCell id="umXC-RFtf43Zf_NUYODG-4" value="MX_INIT" style="rounded=1;whiteSpace=wrap;html=1;fillColor=#f5f5f5;strokeColor=#666666;fontColor=#333333;" vertex="1" parent="1">
          <mxGeometry x="320" y="360" width="120" height="60" as="geometry" />
        </mxCell>
        <mxCell id="umXC-RFtf43Zf_NUYODG-7" style="edgeStyle=orthogonalEdgeStyle;rounded=0;orthogonalLoop=1;jettySize=auto;html=1;" edge="1" parent="1" source="umXC-RFtf43Zf_NUYODG-5" target="umXC-RFtf43Zf_NUYODG-2">
          <mxGeometry relative="1" as="geometry" />
        </mxCell>
        <mxCell id="umXC-RFtf43Zf_NUYODG-8" style="edgeStyle=orthogonalEdgeStyle;rounded=0;orthogonalLoop=1;jettySize=auto;html=1;entryX=0;entryY=0.5;entryDx=0;entryDy=0;" edge="1" parent="1" source="umXC-RFtf43Zf_NUYODG-5" target="umXC-RFtf43Zf_NUYODG-1">
          <mxGeometry relative="1" as="geometry" />
        </mxCell>
        <mxCell id="umXC-RFtf43Zf_NUYODG-9" style="edgeStyle=orthogonalEdgeStyle;rounded=0;orthogonalLoop=1;jettySize=auto;html=1;entryX=0;entryY=0.5;entryDx=0;entryDy=0;" edge="1" parent="1" source="umXC-RFtf43Zf_NUYODG-5" target="umXC-RFtf43Zf_NUYODG-3">
          <mxGeometry relative="1" as="geometry" />
        </mxCell>
        <mxCell id="umXC-RFtf43Zf_NUYODG-5" value="MPU6050_INIT" style="rounded=1;whiteSpace=wrap;html=1;fillColor=#fff2cc;strokeColor=#d6b656;" vertex="1" parent="1">
          <mxGeometry x="500" y="360" width="120" height="60" as="geometry" />
        </mxCell>
        <mxCell id="umXC-RFtf43Zf_NUYODG-12" style="edgeStyle=orthogonalEdgeStyle;rounded=0;orthogonalLoop=1;jettySize=auto;html=1;" edge="1" parent="1" source="umXC-RFtf43Zf_NUYODG-11" target="umXC-RFtf43Zf_NUYODG-2">
          <mxGeometry relative="1" as="geometry" />
        </mxCell>
        <mxCell id="umXC-RFtf43Zf_NUYODG-11" value="互補濾波&lt;br&gt;Acc + Gyro" style="shape=document;whiteSpace=wrap;html=1;boundedLbl=1;fillColor=#f8cecc;strokeColor=#b85450;" vertex="1" parent="1">
          <mxGeometry x="860" y="360" width="120" height="60" as="geometry" />
        </mxCell>
      </root>
    </mxGraphModel>
  </diagram>
</mxfile>
